<svg width="8" height="7" viewBox="0 0 8 7" fill="none" xmlns="http://www.w3.org/2000/svg">
<path fill-rule="evenodd" clip-rule="evenodd" d="M7.20841 0.34467C6.91552 0.0517768 6.44064 0.0517766 6.14775 0.34467L4.02636 2.46606L1.90509 0.344778C1.61219 0.0518849 1.13732 0.0518849 0.844426 0.344778C0.551533 0.637671 0.551532 1.11255 0.844426 1.40544L2.9657 3.52672L0.844448 5.64797C0.551555 5.94087 0.551555 6.41574 0.844448 6.70863C1.13734 7.00153 1.61222 7.00153 1.90511 6.70863L4.02636 4.58738L6.14773 6.70874C6.44062 7.00163 6.91549 7.00163 7.20839 6.70874C7.50128 6.41585 7.50128 5.94097 7.20839 5.64808L5.08702 3.52672L7.20841 1.40533C7.5013 1.11244 7.5013 0.637563 7.20841 0.34467Z" fill="#A1A5B7"/>
</svg>
